<svg width="211" height="66" viewBox="0 0 211 66" fill="none" xmlns="http://www.w3.org/2000/svg">
<path d="M80.3871 39.8975H96.5565V47.4258H69.9785V40.0284L85.8206 18.6874H70.0439V11.1592H96.3601V18.5565L80.3871 39.8975ZM138.348 11.1592L115.894 64.5771H106.14L113.996 46.5093L99.463 11.1592H109.741L119.102 36.4934L128.594 11.1592H138.348ZM152.453 16.789C153.632 14.8687 155.159 13.3631 157.036 12.272C158.956 11.181 161.138 10.6354 163.582 10.6354V20.2585H161.16C158.28 20.2585 156.098 20.935 154.614 22.2879C153.174 23.6408 152.453 25.9975 152.453 29.3579V47.4258H143.289V11.1592H152.453V16.789ZM185.859 48.015C182.368 48.015 179.226 47.2512 176.432 45.7237C173.639 44.1526 171.435 41.9487 169.821 39.112C168.25 36.2752 167.464 33.0021 167.464 29.2925C167.464 25.5829 168.271 22.3097 169.886 19.473C171.544 16.6362 173.792 14.4541 176.629 12.9267C179.466 11.3555 182.63 10.57 186.121 10.57C189.612 10.57 192.776 11.3555 195.613 12.9267C198.45 14.4541 200.676 16.6362 202.29 19.473C203.949 22.3097 204.778 25.5829 204.778 29.2925C204.778 33.0021 203.927 36.2752 202.225 39.112C200.567 41.9487 198.297 44.1526 195.417 45.7237C192.58 47.2512 189.394 48.015 185.859 48.015ZM185.859 40.0284C187.518 40.0284 189.067 39.6357 190.507 38.8501C191.991 38.0209 193.169 36.7989 194.042 35.1842C194.915 33.5694 195.351 31.6055 195.351 29.2925C195.351 25.8447 194.435 23.2044 192.602 21.3714C190.812 19.4948 188.609 18.5565 185.99 18.5565C183.372 18.5565 181.168 19.4948 179.378 21.3714C177.633 23.2044 176.76 25.8447 176.76 29.2925C176.76 32.7402 177.611 35.4024 179.313 37.279C181.058 39.112 183.241 40.0284 185.859 40.0284Z" fill="#8F01AB"/>
<g clip-path="url(#clip0_2321_72)">
<path d="M0.265625 2.15381H49.0931V18.1901L20.4806 48.0196H49.2368C49.2368 48.0196 48.5956 63.3803 34.1465 64.2082C32.3034 64.3147 30.4725 64.3202 28.6416 64.2963C26.4463 64.267 24.2528 64.1917 22.0469 64.188C10.3731 64.1642 0.265625 64.2082 0.265625 64.2082V46.0738L26.8861 18.4912L14.6428 18.3406C14.6428 18.3406 1.40445 18.337 0.265625 2.15381Z" fill="url(#paint0_linear_2321_72)"/>
<path d="M0.265625 2.15381C0.265625 2.15381 0.265625 19.9762 19.4837 18.337L0.265625 2.15381Z" fill="url(#paint1_linear_2321_72)"/>
<path d="M34.7633 2.2768L19.4837 18.337L0.265625 2.15381L34.7633 2.2768Z" fill="url(#paint2_linear_2321_72)"/>
<path d="M49.0931 2.15381V18.1901L0.265625 46.0738L42.4021 2.22907L49.0931 2.15381Z" fill="url(#paint3_linear_2321_72)"/>
<path d="M49.0931 18.1829L20.4806 48.0123L0.265625 64.1991V46.0665L49.0931 18.1829Z" fill="url(#paint4_linear_2321_72)"/>
<path d="M49.2369 48.0195C49.2369 48.0195 48.5782 55.6706 45.1564 59.0537C41.8346 62.3358 38.7983 64.1072 34.1484 64.2082C29.4862 64.3073 22.0488 64.188 22.0488 64.188" fill="url(#paint5_linear_2321_72)"/>
<path d="M49.2351 48.0195L22.0452 64.1862L0.265625 64.2064L20.4806 48.0195H49.2351Z" fill="url(#paint6_linear_2321_72)"/>
<path d="M42.404 2.22485L26.8862 18.4888L19.4839 18.3328L34.7634 2.27442L42.404 2.22485Z" fill="#00397E"/>
</g>
<defs>
<linearGradient id="paint0_linear_2321_72" x1="0.265625" y1="33.2297" x2="49.2351" y2="33.2297" gradientUnits="userSpaceOnUse">
<stop stop-color="#2000B1"/>
<stop offset="1" stop-color="#D30077"/>
</linearGradient>
<linearGradient id="paint1_linear_2321_72" x1="0.265625" y1="10.2986" x2="19.4837" y2="10.2986" gradientUnits="userSpaceOnUse">
<stop stop-color="#2000B1"/>
<stop offset="1" stop-color="#D30077"/>
</linearGradient>
<linearGradient id="paint2_linear_2321_72" x1="0.265625" y1="10.2454" x2="34.7633" y2="10.2454" gradientUnits="userSpaceOnUse">
<stop stop-color="#2000B1"/>
<stop offset="1" stop-color="#D30077"/>
</linearGradient>
<linearGradient id="paint3_linear_2321_72" x1="0.265625" y1="24.1138" x2="49.0931" y2="24.1138" gradientUnits="userSpaceOnUse">
<stop stop-color="#0601D6"/>
<stop offset="0.97" stop-color="#E6008F"/>
<stop offset="1" stop-color="#D30077"/>
</linearGradient>
<linearGradient id="paint4_linear_2321_72" x1="0.265625" y1="41.191" x2="49.0931" y2="41.191" gradientUnits="userSpaceOnUse">
<stop stop-color="#0800D6"/>
<stop offset="1" stop-color="#CA007C"/>
</linearGradient>
<linearGradient id="paint5_linear_2321_72" x1="22.0471" y1="56.1331" x2="49.2369" y2="56.1331" gradientUnits="userSpaceOnUse">
<stop offset="0.17" stop-color="#2000B1"/>
<stop offset="1" stop-color="#D30077"/>
</linearGradient>
<linearGradient id="paint6_linear_2321_72" x1="0.265625" y1="56.1129" x2="49.2351" y2="56.1129" gradientUnits="userSpaceOnUse">
<stop offset="0.17" stop-color="#1700B9"/>
<stop offset="1" stop-color="#CA007B"/>
</linearGradient>
<clipPath id="clip0_2321_72">
<rect width="48.9694" height="62.1535" fill="white" transform="translate(0.265625 2.15308)"/>
</clipPath>
</defs>
</svg>
